<svg width="771" height="134" viewBox="0 0 771 134" fill="black" xmlns="http://www.w3.org/2000/svg">
<path d="M88.5688 76.1382C106.644 94.2256 124.236 111.824 141.979 129.578C135.572 134.066 128.756 135.257 121.672 132.435C118.503 131.171 115.451 129.041 113.007 126.631C96.5164 110.365 80.1938 93.927 63.8539 77.5059C62.8653 76.5104 61.8897 76.0993 60.4866 76.1036C47.255 76.1555 34.0277 76.1339 20.796 76.1339H18.4346V133.426C10.1373 132.755 2.25876 125.414 0.501733 116.862C0.212493 115.464 0.0311784 114.014 0.0268614 112.59C-0.00767469 94.8835 0.000959336 77.177 0.000959336 59.4705C0.000959336 59.0463 0.0441295 58.6221 0.0916166 57.8258C1.02841 57.8258 1.92203 57.8258 2.81565 57.8258C36.6826 57.8258 70.5496 57.8344 104.417 57.8214C114.117 57.8214 121.823 52.2771 124.27 43.625C127.936 30.6752 118.576 18.526 104.792 18.4784C87.0319 18.4178 69.2717 18.4611 51.5116 18.4611C41.7335 18.4611 31.9555 18.5044 22.1731 18.4481C11.7303 18.3918 3.35096 12.077 0.730535 2.4036C0.54922 1.71975 0.454246 1.00993 0.268614 0.0447501C1.14928 0.0447501 1.84864 0.0447501 2.548 0.0447501C36.7733 0.0447501 70.9986 0.0231093 105.228 0.0534065C124.758 0.0707191 140.507 13.8429 143.257 33.2028C146.024 52.6623 132.555 71.8057 113.171 75.1644C106.791 76.2724 100.151 75.8699 93.6283 76.1296C92.1476 76.1902 90.6669 76.1382 88.5688 76.1382Z" fill="#4D00FE"/>
<path d="M260.492 22.4946C257.427 29.3201 254.574 35.6652 251.729 42.0146C241.428 65.0145 231.21 88.0533 220.797 111.001C215.405 122.886 206.128 130.262 193.432 133.296C192.62 133.49 191.778 133.56 190.617 133.737C193.691 126.799 196.609 120.177 199.553 113.568C215.906 76.839 232.294 40.1232 248.564 3.35977C249.583 1.05719 250.667 0.126632 253.244 0.239165C258.481 0.468557 263.739 0.347369 268.988 0.278118C270.309 0.260805 270.987 0.620043 271.557 1.90551C282.608 26.8487 293.725 51.766 304.824 76.6832C312.771 94.5239 320.719 112.36 328.662 130.201C329.146 131.292 329.621 132.382 330.221 133.763C320.974 132.361 313.514 128.34 307.246 121.904C302.091 116.611 299.496 109.88 296.574 103.327C284.935 77.2329 273.314 51.1297 261.684 25.0309C261.369 24.3211 261.019 23.6242 260.488 22.4989L260.492 22.4946Z" fill="#4D00FE"/>
<path d="M377.225 133.594V131.3C377.225 94.9738 377.212 58.6432 377.233 22.3169C377.237 11.912 383.549 3.48076 393.21 0.84923C393.892 0.663119 394.6 0.572228 395.473 0.399101C395.524 1.17817 395.598 1.80576 395.598 2.42901C395.602 38.9025 395.624 75.3716 395.589 111.845C395.576 122.977 388.064 131.923 377.229 133.59L377.225 133.594Z" fill="#4D00FE"/>
<path d="M443.053 133.764C443.459 129.665 445.164 126.224 447.707 123.251C452.348 117.827 458.297 115.282 465.48 115.382C474.468 115.508 483.456 115.412 492.444 115.412C510.852 115.412 529.264 115.425 547.672 115.408C558.209 115.395 566.192 108.388 567.608 97.9784C569.127 86.7771 560.01 76.1905 548.665 76.1602C526.156 76.1039 503.647 76.1602 481.142 76.1299C472.076 76.1169 463.805 73.481 456.816 67.664C440.415 54.0129 438.11 31.1299 450.44 15.0638C457.934 5.2951 467.971 0.105631 480.344 0.0753339C514.862 -0.00690123 549.377 0.0450368 583.896 0.0493649C584.53 0.0493649 585.165 0.109959 585.804 0.144585C584.845 9.22075 576.354 17.4919 567.254 18.2883C565.682 18.4268 564.094 18.4614 562.514 18.4614C535.545 18.47 508.581 18.4614 481.613 18.4744C472.405 18.4787 465.083 23.4474 462.238 31.5238C457.653 44.5342 467.198 57.7655 481.323 57.8087C503.401 57.878 525.478 57.865 547.555 57.8087C556.979 57.7871 565.471 60.4965 572.589 66.6598C581.659 74.5155 586.382 84.5741 586.145 96.667C585.743 117.334 569.373 133.712 548.492 133.846C513.904 134.067 479.312 133.911 444.724 133.907C444.236 133.907 443.744 133.82 443.053 133.755V133.764Z" fill="#4D00FE"/>
<path d="M768.046 3.30679C768.76 2.26114 769.474 1.15716 770.152 0.0210368C770.152 0.0210368 742.02 0.00907445 741.632 0.00907445C714.289 0.00907445 686.945 -0.0178408 659.601 0.0210368C644.713 0.0419709 633.179 11.6783 633.167 26.6313C633.143 53.5406 633.152 80.4528 633.179 107.362C633.182 109.097 633.299 110.861 633.627 112.56C636.058 125.117 646.775 133.966 659.595 133.978C686.888 134.005 714.184 133.987 741.477 133.987H770.152C770.152 128.082 769.739 120.104 759.136 117.215C756.853 116.593 754.479 116.512 752.113 116.514C728.989 116.537 687.468 116.53 666.418 116.51C664.936 116.51 663.417 116.468 661.973 116.163C655.033 114.698 650.591 108.953 650.582 101.396C650.555 78.4701 650.54 55.5472 650.627 32.6244C650.636 30.4383 651 28.0787 651.88 26.1049C654.553 20.1178 659.455 17.4472 665.944 17.4591C680.062 17.4861 734.034 17.4442 748.152 17.4771C749.718 17.4812 751.268 17.1748 752.73 16.6987C759.315 14.5542 764.139 9.0254 768.046 3.30679Z" fill="#4D00FE"/>
<path d="M667.698 57.5914C668.365 57.5914 668.854 57.5914 669.339 57.5914C686.447 57.5914 703.554 57.6075 720.662 57.5752C723.529 57.5688 726.038 58.3523 728.048 60.6576C729.459 62.2762 730.367 64.2011 730.447 66.4098C730.563 69.6728 730.477 72.9422 730.477 76.418H728.837C711.779 76.418 694.722 76.418 677.662 76.418C671.414 76.418 667.701 72.3715 667.698 65.5747C667.698 63.0049 667.698 60.4319 667.698 57.5946V57.5914Z" fill="#4D00FE"/>
</svg>
